<svg width="66" height="85" viewBox="0 0 66 85" fill="none" xmlns="http://www.w3.org/2000/svg">
<path d="M65.5 0C57.4109 -1.34414e-07 49.6531 4.47766 43.9332 12.448C38.2134 20.4183 35 31.2283 35 42.5C35 53.7717 38.2134 64.5817 43.9332 72.552C49.6531 80.5223 57.4109 85 65.5 85L65.5 42.5V0Z" fill="#4D4DFF"/>
<path d="M36.5 4C30.2674 4 24.2901 8.05624 19.883 15.2764C15.4759 22.4965 13 32.2892 13 42.5C13 52.7108 15.4759 62.5035 19.883 69.7236C24.2901 76.9438 30.2674 81 36.5 81L36.5 42.5V4Z" fill="#4D4DFF"/>
<path d="M13.5 14C9.91958 14 6.4858 17.0553 3.95406 22.4939C1.42232 27.9325 3.13011e-07 35.3087 0 43C-3.1301e-07 50.6913 1.42232 58.0675 3.95406 63.5061C6.4858 68.9446 9.91958 72 13.5 72L13.5 43V14Z" fill="#4D4DFF"/>
</svg>
