<svg width="62" height="62" viewBox="0 0 62 62" fill="none" xmlns="http://www.w3.org/2000/svg">
<path d="M46.5 5.16663H15.5C11.2117 5.16663 7.75 8.60246 7.75 12.8391V41.0233C7.75 45.26 11.2117 48.7216 15.5 48.7216H17.4633C19.5042 48.7216 21.4933 49.5225 22.94 50.9691L27.3575 55.335C29.3725 57.3241 32.6275 57.3241 34.6425 55.335L39.06 50.9691C40.5067 49.5225 42.4958 48.7216 44.5367 48.7216H46.5C50.7883 48.7216 54.25 45.26 54.25 41.0233V12.8391C54.25 8.60246 50.7883 5.16663 46.5 5.16663ZM31 14.3375C33.79 14.3375 36.0375 16.6108 36.0375 19.375C36.0375 22.1133 33.8675 24.3091 31.1808 24.4125C31.0775 24.4125 30.9225 24.4125 30.7933 24.4125C28.0808 24.3091 25.9367 22.1133 25.9367 19.375C25.9625 16.6108 28.21 14.3375 31 14.3375ZM38.1042 37.9491C34.2033 40.5583 27.7967 40.5583 23.8958 37.9491C20.46 35.6758 20.46 31.9041 23.8958 29.605C27.8225 26.9958 34.2292 26.9958 38.1042 29.605C41.54 31.9041 41.54 35.65 38.1042 37.9491Z" fill="#D4D4D4"/>
</svg>
