<svg width="58" height="58" viewBox="0 0 58 58" fill="none" xmlns="http://www.w3.org/2000/svg">
<path d="M48.8409 18.8983L30.2325 29.6766C29.4834 30.1116 28.5409 30.1116 27.7675 29.6766L9.1592 18.8983C7.83003 18.125 7.4917 16.3125 8.5067 15.1766C9.20753 14.3791 10.005 13.7266 10.8509 13.2675L23.9492 6.01748C26.7525 4.44665 31.2959 4.44665 34.0992 6.01748L47.1975 13.2675C48.0434 13.7266 48.8409 14.4033 49.5417 15.1766C50.5084 16.3125 50.17 18.125 48.8409 18.8983Z" fill="#D4D4D4"/>
<path d="M27.6225 34.1717V50.6533C27.6225 52.49 25.7617 53.6983 24.1183 52.9008C19.14 50.46 10.7542 45.8925 10.7542 45.8925C7.80583 44.225 5.38916 40.02 5.38916 36.5642V24.0942C5.38916 22.185 7.39499 20.9767 9.03833 21.9192L26.4142 31.9967C27.1392 32.4558 27.6225 33.2775 27.6225 34.1717Z" fill="#D4D4D4"/>
<path d="M30.3775 34.1717V50.6533C30.3775 52.49 32.2383 53.6983 33.8817 52.9008C38.86 50.46 47.2458 45.8925 47.2458 45.8925C50.1942 44.225 52.6108 40.02 52.6108 36.5642V24.0942C52.6108 22.185 50.605 20.9767 48.9617 21.9192L31.5858 31.9967C30.8608 32.4558 30.3775 33.2775 30.3775 34.1717Z" fill="#D4D4D4"/>
</svg>
