<svg width="54" height="54" viewBox="0 0 54 54" fill="none" xmlns="http://www.w3.org/2000/svg">
<path d="M37.6875 8.01V4.5C37.6875 3.5775 36.9225 2.8125 36 2.8125C35.0775 2.8125 34.3125 3.5775 34.3125 4.5V7.875H19.6875V4.5C19.6875 3.5775 18.9225 2.8125 18 2.8125C17.0775 2.8125 16.3125 3.5775 16.3125 4.5V8.01C10.2375 8.5725 7.29003 12.195 6.84003 17.5725C6.79503 18.225 7.33503 18.765 7.96503 18.765H46.035C46.6875 18.765 47.2275 18.2025 47.16 17.5725C46.71 12.195 43.7625 8.5725 37.6875 8.01Z" fill="#D4D4D4"/>
<path d="M45 22.14H9C7.7625 22.14 6.75 23.1525 6.75 24.39V38.25C6.75 45 10.125 49.5 18 49.5H36C43.875 49.5 47.25 45 47.25 38.25V24.39C47.25 23.1525 46.2375 22.14 45 22.14ZM20.7225 40.9725C20.61 41.0625 20.4975 41.175 20.385 41.2425C20.25 41.3325 20.115 41.4 19.98 41.445C19.845 41.5125 19.71 41.5575 19.575 41.58C19.4175 41.6025 19.2825 41.625 19.125 41.625C18.8325 41.625 18.54 41.5575 18.27 41.445C17.9775 41.3325 17.7525 41.175 17.5275 40.9725C17.1225 40.545 16.875 39.96 16.875 39.375C16.875 38.79 17.1225 38.205 17.5275 37.7775C17.7525 37.575 17.9775 37.4175 18.27 37.305C18.675 37.125 19.125 37.08 19.575 37.17C19.71 37.1925 19.845 37.2375 19.98 37.305C20.115 37.35 20.25 37.4175 20.385 37.5075C20.4975 37.5975 20.61 37.6875 20.7225 37.7775C21.1275 38.205 21.375 38.79 21.375 39.375C21.375 39.96 21.1275 40.545 20.7225 40.9725ZM20.7225 33.0975C20.295 33.5025 19.71 33.75 19.125 33.75C18.54 33.75 17.955 33.5025 17.5275 33.0975C17.1225 32.67 16.875 32.085 16.875 31.5C16.875 30.915 17.1225 30.33 17.5275 29.9025C18.1575 29.2725 19.1475 29.07 19.98 29.43C20.2725 29.5425 20.52 29.7 20.7225 29.9025C21.1275 30.33 21.375 30.915 21.375 31.5C21.375 32.085 21.1275 32.67 20.7225 33.0975ZM28.5975 40.9725C28.17 41.3775 27.585 41.625 27 41.625C26.415 41.625 25.83 41.3775 25.4025 40.9725C24.9975 40.545 24.75 39.96 24.75 39.375C24.75 38.79 24.9975 38.205 25.4025 37.7775C26.235 36.945 27.765 36.945 28.5975 37.7775C29.0025 38.205 29.25 38.79 29.25 39.375C29.25 39.96 29.0025 40.545 28.5975 40.9725ZM28.5975 33.0975C28.485 33.1875 28.3725 33.2775 28.26 33.3675C28.125 33.4575 27.99 33.525 27.855 33.57C27.72 33.6375 27.585 33.6825 27.45 33.705C27.2925 33.7275 27.1575 33.75 27 33.75C26.415 33.75 25.83 33.5025 25.4025 33.0975C24.9975 32.67 24.75 32.085 24.75 31.5C24.75 30.915 24.9975 30.33 25.4025 29.9025C25.605 29.7 25.8525 29.5425 26.145 29.43C26.9775 29.07 27.9675 29.2725 28.5975 29.9025C29.0025 30.33 29.25 30.915 29.25 31.5C29.25 32.085 29.0025 32.67 28.5975 33.0975ZM36.4725 40.9725C36.045 41.3775 35.46 41.625 34.875 41.625C34.29 41.625 33.705 41.3775 33.2775 40.9725C32.8725 40.545 32.625 39.96 32.625 39.375C32.625 38.79 32.8725 38.205 33.2775 37.7775C34.11 36.945 35.64 36.945 36.4725 37.7775C36.8775 38.205 37.125 38.79 37.125 39.375C37.125 39.96 36.8775 40.545 36.4725 40.9725ZM36.4725 33.0975C36.36 33.1875 36.2475 33.2775 36.135 33.3675C36 33.4575 35.865 33.525 35.73 33.57C35.595 33.6375 35.46 33.6825 35.325 33.705C35.1675 33.7275 35.01 33.75 34.875 33.75C34.29 33.75 33.705 33.5025 33.2775 33.0975C32.8725 32.67 32.625 32.085 32.625 31.5C32.625 30.915 32.8725 30.33 33.2775 29.9025C33.5025 29.7 33.7275 29.5425 34.02 29.43C34.425 29.25 34.875 29.205 35.325 29.295C35.46 29.3175 35.595 29.3625 35.73 29.43C35.865 29.475 36 29.5425 36.135 29.6325C36.2475 29.7225 36.36 29.8125 36.4725 29.9025C36.8775 30.33 37.125 30.915 37.125 31.5C37.125 32.085 36.8775 32.67 36.4725 33.0975Z" fill="#D4D4D4"/>
</svg>
