<svg width="64" height="64" viewBox="0 0 64 64" fill="none" xmlns="http://www.w3.org/2000/svg">
<path d="M28.6667 12.3733L16.8534 6.53333C10.48 3.41333 5.25336 6.58666 5.25336 13.5733V53.1467C5.25336 56.1867 7.78669 58.6667 10.88 58.6667H30.6667C32.1334 58.6667 33.3334 57.4667 33.3334 56V19.76C33.3334 16.96 31.2267 13.6267 28.6667 12.3733ZM23.92 36.6667H14.6667C13.5734 36.6667 12.6667 35.76 12.6667 34.6667C12.6667 33.5733 13.5734 32.6667 14.6667 32.6667H23.92C25.0134 32.6667 25.92 33.5733 25.92 34.6667C25.92 35.76 25.04 36.6667 23.92 36.6667ZM23.92 26H14.6667C13.5734 26 12.6667 25.0933 12.6667 24C12.6667 22.9067 13.5734 22 14.6667 22H23.92C25.0134 22 25.92 22.9067 25.92 24C25.92 25.0933 25.04 26 23.92 26Z" fill="#D4D4D4"/>
<path d="M58.6666 48.1067V52C58.6666 55.68 55.68 58.6667 52 58.6667H39.92C38.48 58.6667 37.3333 57.52 37.3333 56.08V50.32C40.1866 50.6667 43.2 49.84 45.36 48.1067C47.1733 49.5734 49.4933 50.4534 52.0266 50.4534C54.5066 50.4534 56.8266 49.5734 58.6666 48.1067Z" fill="#D4D4D4"/>
<path d="M58.6666 40.1333V40.16C58.4533 43.6533 55.6 46.4533 52.0266 46.4533C48.32 46.4533 45.36 43.44 45.36 39.7866C45.36 43.8666 41.6 47.1466 37.3333 46.32V32C37.3333 30.2933 38.9066 29.0133 40.5866 29.3866L45.36 30.4533L46.64 30.7466L52.08 31.9733C53.3867 32.24 54.5867 32.6933 55.6266 33.36C55.6266 33.3866 55.6533 33.3866 55.6533 33.3866C55.92 33.5733 56.1866 33.7866 56.4266 34.0266C57.6533 35.2533 58.4533 37.04 58.64 39.6533C58.64 39.8133 58.6666 39.9733 58.6666 40.1333Z" fill="#D4D4D4"/>
</svg>
